<svg width="27" height="25" viewBox="0 0 27 25" fill="none" xmlns="http://www.w3.org/2000/svg">
<path d="M9.19745 20.5546L9.77426 20.4375C9.9358 20.4051 10.0811 20.3178 10.1856 20.1904C10.29 20.0629 10.347 19.9032 10.347 19.7385C10.347 19.5737 10.29 19.414 10.1856 19.2866C10.0811 19.1592 9.9358 19.0719 9.77426 19.0395L9.19745 18.9223C8.48623 18.778 7.83327 18.4274 7.32012 17.9143C6.80696 17.4011 6.45634 16.7482 6.31206 16.037L6.19494 15.4601C6.16255 15.2986 6.07523 15.1532 5.94779 15.0488C5.82036 14.9444 5.66068 14.8874 5.49592 14.8874C5.33116 14.8874 5.17149 14.9444 5.04405 15.0488C4.91661 15.1532 4.82927 15.2986 4.79688 15.4601L4.67977 16.037C4.53548 16.7482 4.18486 17.4011 3.6717 17.9143C3.15855 18.4274 2.50559 18.778 1.79437 18.9223L1.21758 19.0395C1.05604 19.0719 0.910682 19.1592 0.806255 19.2866C0.701829 19.414 0.644775 19.5737 0.644775 19.7385C0.644775 19.9032 0.701829 20.0629 0.806255 20.1904C0.910682 20.3178 1.05604 20.4051 1.21758 20.4375L1.79437 20.5546C2.50559 20.6989 3.15855 21.0495 3.6717 21.5627C4.18486 22.0759 4.53548 22.7288 4.67977 23.44L4.79688 24.0168C4.82927 24.1784 4.91661 24.3237 5.04405 24.4281C5.17149 24.5326 5.33116 24.5896 5.49592 24.5896C5.66068 24.5896 5.82036 24.5326 5.94779 24.4281C6.07523 24.3237 6.16255 24.1784 6.19494 24.0168L6.31206 23.44C6.45634 22.7288 6.80696 22.0759 7.32012 21.5627C7.83327 21.0495 8.48623 20.6989 9.19745 20.5546Z" fill="url(#paint0_linear_311_1806)"/>
<path d="M23.178 10.1095L25.3007 9.67908C25.5125 9.63576 25.7029 9.5206 25.8396 9.35308C25.9763 9.18557 26.051 8.97596 26.051 8.75973C26.051 8.5435 25.9763 8.33391 25.8396 8.16639C25.7029 7.99887 25.5125 7.88372 25.3007 7.84039L23.178 7.40999C22.1554 7.20247 21.2166 6.69832 20.4787 5.96049C19.7409 5.22265 19.2367 4.28382 19.0292 3.26121L18.5988 1.13851C18.5562 0.926242 18.4414 0.735262 18.274 0.598051C18.1065 0.46084 17.8967 0.385864 17.6802 0.385864C17.4637 0.385864 17.2539 0.46084 17.0864 0.598051C16.9189 0.735262 16.8042 0.926242 16.7616 1.13851L16.3312 3.26121C16.1238 4.2839 15.6198 5.22282 14.8819 5.96069C14.144 6.69855 13.2051 7.20264 12.1824 7.40999L10.0597 7.84039C9.84785 7.88372 9.65746 7.99887 9.52073 8.16639C9.38401 8.33391 9.30933 8.5435 9.30933 8.75973C9.30933 8.97596 9.38401 9.18557 9.52073 9.35308C9.65746 9.5206 9.84785 9.63576 10.0597 9.67908L12.1824 10.1095C13.2051 10.3168 14.144 10.8209 14.8819 11.5588C15.6198 12.2966 16.1238 13.2356 16.3312 14.2583L16.7616 16.381C16.8042 16.5932 16.9189 16.7842 17.0864 16.9214C17.2539 17.0586 17.4637 17.1336 17.6802 17.1336C17.8967 17.1336 18.1065 17.0586 18.274 16.9214C18.4414 16.7842 18.5562 16.5932 18.5988 16.381L19.0292 14.2583C19.2367 13.2357 19.7409 12.2968 20.4787 11.559C21.2166 10.8212 22.1554 10.317 23.178 10.1095Z" fill="url(#paint1_linear_311_1806)"/>
<defs>
<linearGradient id="paint0_linear_311_1806" x1="10.347" y1="19.7385" x2="0.538051" y2="18.6615" gradientUnits="userSpaceOnUse">
<stop stop-color="#8D65E9"/>
<stop offset="0.483" stop-color="#5391E4"/>
<stop offset="1" stop-color="#6BCD94"/>
</linearGradient>
<linearGradient id="paint1_linear_311_1806" x1="26.051" y1="8.75974" x2="9.12502" y2="6.90206" gradientUnits="userSpaceOnUse">
<stop stop-color="#8D65E9"/>
<stop offset="0.483" stop-color="#5391E4"/>
<stop offset="1" stop-color="#6BCD94"/>
</linearGradient>
</defs>
</svg>
